<svg width="118" height="118" viewBox="0 0 118 118" fill="none" xmlns="http://www.w3.org/2000/svg">
<path d="M23.382 72.1667C26.3184 71.284 29.2547 70.3782 32.1911 69.484L32.1911 69.484C32.2908 69.6216 32.3905 69.7591 32.5235 69.8738C30.4514 71.9489 28.335 73.9782 26.3184 76.1106C24.0247 78.5412 19.3265 86.3945 18.3625 89.811C18.1409 90.2238 18.0301 90.6135 17.7974 90.8658C15.5037 93.3536 13.1989 95.8186 10.8942 98.2949C9.17666 100.141 7.39268 101.918 5.81923 103.878C5.02143 104.876 4.65577 106.24 5.42033 107.536C6.15165 108.774 7.32619 108.556 8.37885 108.223C9.67528 107.799 10.9274 106.779 12.2017 106.767C16.5453 106.722 20.8667 105.736 25.2214 106.515C26.6175 106.767 28.0469 106.859 29.4542 107.043C30.8503 107.226 31.8476 105.587 33.4099 106.16C33.687 106.263 34.4626 105.357 34.7839 104.784C35.4488 103.603 35.892 102.285 36.5568 101.115C38.4516 97.7905 38 97.3748 36.5568 97.0338C35.1496 99.1433 34.2632 99.4987 33.0997 101.757C31.7146 104.452 31.6038 104.555 28.8004 103.741C25.4984 102.789 22.1964 102.262 18.6949 102.938C16.3236 103.397 13.7973 103.03 11.3595 103.03C11.4039 102.95 11.4814 102.617 11.6809 102.411C15.8583 98.1459 23.6701 88.0569 27.8807 83.8149C28.8337 82.5767 29.6758 81.2239 30.7506 80.1118C33.8975 76.8558 38 69.8738 38 69.8738V63.0064C36.2603 60.7708 34.1745 60.4727 31.1163 61.7682C27.1605 63.4306 23.1825 65.0127 19.2489 66.7439C17.1547 67.6611 15.2821 68.9222 14.3624 71.2839C13.6311 73.1871 12.7668 75.0329 12.0133 76.9246C11.282 78.7704 10.2958 80.5933 10.0188 82.5194C9.53123 85.9589 8.89964 89.2836 7.17107 92.2989C6.52839 93.4339 5.76383 94.4886 5.05467 95.5893C8.4675 93.1358 10.6947 89.8569 11.3152 85.6378C11.9357 81.4073 13.1989 77.6928 16.6561 74.8724C18.4179 73.4279 20.1686 72.6253 22.3072 72.4075C22.6728 72.3616 23.0274 72.2699 23.382 72.1667Z" fill="#1AB060"/>
<path d="M50.2434 72.7801C49.2715 75.061 47.9579 77.2361 46.8044 79.4553C46.7296 79.7987 43.5897 92.7703 43.4509 92.9553C42.4363 94.3555 41.4751 95.7733 40.3537 97.1118C38.3458 99.5071 37.0749 102.123 37.0001 105.037C36.9894 105.663 37.705 106.552 38.3885 106.869C39.307 107.301 39.9051 106.587 40.2682 105.856C41.2187 103.928 47.0287 107.9 48.2889 106.112C51.7043 106.112 49.7521 105.707 51.0017 106.112C52.6998 106.649 57.7728 106.006 58.5738 105.037C60.6778 102.484 58.6699 99.6128 60.6778 97.0062C60.5603 96.9533 60.4428 96.8917 60.3254 96.8388C59.3535 97.4112 58.3709 97.9837 57.399 98.5561C55 99.5 41.5 106.112 48.2889 92.7968C48.5132 91.3613 48.6841 90.1549 48.9084 88.9484C49.0579 88.1383 49.0793 87.2312 49.5599 86.5619C50.3288 85.4964 51.3327 84.5101 52.4114 83.6383C54.494 81.9386 56.7155 80.3711 58.8408 78.7156C61.6283 76.5492 64.01 74.1715 65.11 71.0453C65.9431 68.6852 66.8188 66.3251 67.8975 64.0355C68.5917 62.5649 69.7345 61.2527 70.5889 59.8261C71.2297 58.7518 71.1122 57.5893 70.3005 56.6294C68.848 54.9034 65.2061 54.4631 63.1983 55.7224C61.607 56.7175 60.0477 57.7566 58.5738 58.8662C55.3805 61.2615 52.9348 64.0883 51.7386 67.5404C51.1405 69.2664 50.9589 71.0981 50.2434 72.7801Z" fill="#1AB060"/>
<path d="M44.798 56.8233C40.5119 56.2828 36.2028 55.8343 31.9398 55.1558C28.9246 54.6728 26.6833 52.7178 26.1404 49.8313C25.5281 46.6114 26.9491 43.8629 29.8141 41.9539C31.5817 40.781 33.3146 39.562 34.932 38.205C36.9306 36.526 39.2527 36.204 41.7019 36.204C44.694 36.204 47.8133 35.6635 50.6437 36.342C53.9131 37.124 57.2865 38.366 59.5393 41.2295C61.1682 43.2879 60.4057 45.5419 59.2851 47.3819C56.2467 52.4303 51.4177 55.0523 45.8262 56.4438C45.5143 56.5243 45.1677 56.4553 44.8327 56.4553C44.8211 56.5818 44.8096 56.6968 44.798 56.8233ZM32.4597 43.4949C31.6164 44.5529 30.5535 45.4614 30.0798 46.6114C29.5831 47.8074 31.0503 49.7738 32.8063 49.9233C36.9999 50.2913 41.2629 50.6823 45.4334 50.3373C48.7837 49.7163 51.487 48.1984 52.469 47.4854C54.4792 46.3239 54.2828 44.8749 52.2957 43.6329C51.7412 43.2879 51.1751 42.9659 50.609 42.6209C48.3678 44.7599 45.6067 45.6454 42.7416 46.3009C38.9985 47.1519 35.5327 46.8989 32.4597 43.4949ZM47.7786 41.1145C47.3165 40.8845 47.097 40.6775 46.8659 40.6545C44.359 40.482 41.8521 40.2405 39.3451 40.229C38.4093 40.2175 37.4158 40.643 36.5494 41.0685C36.041 41.3214 35.7291 41.9769 35.3248 42.4484C35.7984 42.7474 36.2374 43.1959 36.7573 43.3224C40.6506 44.2999 44.255 43.6789 47.7786 41.1145Z" fill="#1AB060"/>
<path d="M12 115.697C15.3914 115.022 18.7981 114.348 22.1895 113.663C27.2149 112.647 32.194 111.552 37.2502 110.613C44.8499 109.196 52.6963 108.854 60.5581 108.609C63.5332 108.511 66.4929 107.954 69.4372 108.003C73.399 108.062 77.3607 108.502 81.3224 108.766C82.4169 108.844 83.5114 108.883 84.6058 108.932C87.4885 109.059 88.953 109.968 88.9992 111.698C89.0454 113.136 87.0723 114.387 84.8062 114.719C80.9062 115.306 77.299 114.318 73.5531 114.123C69.7147 113.918 65.8301 114.035 61.9608 113.957C57.66 113.869 53.3591 113.683 49.0737 113.624C46.8231 113.595 44.557 113.742 42.3064 113.781C36.0016 113.888 29.743 113.976 23.5614 115.149C19.9234 115.844 15.9155 115.746 12.0771 116C12.0617 115.892 12.0308 115.795 12 115.697Z" fill="#1AB060"/>
<path d="M94 94.935C94.4743 92.2974 94.8695 89.5585 95.4568 87.0224C96.8571 80.9611 97.5459 75.1027 96.4166 68.1285C94.7905 58.1363 97.4894 47.0789 102.063 43.4016C109.5 45.0001 109.76 55.3047 109.5 58.5002C109.376 60.0218 102.492 51.935 102.063 53.0001C100.143 57.768 101.25 61.5347 101.577 67.393C101.984 74.5702 100.945 80.53 98.7655 85.7036C97.3539 89.0512 95.9988 92.551 94.6211 96.0001L94 94.935Z" fill="#1AB060"/>
<path d="M32 35.5498C32.4852 34.3538 32.8896 33.1118 33.4903 31.9618C34.9228 29.2133 35.6276 26.5569 34.4723 23.3944C32.8087 18.8635 35.5698 13.8495 40.2486 12.1821C41.6812 11.6761 42.4437 12.2396 42.1779 13.6885C42.0509 14.3785 41.9469 15.2065 41.5079 15.6895C39.5439 17.8515 39.4168 20.4045 39.7519 23.0609C40.1678 26.3154 39.1049 29.0178 36.8752 31.3638C35.4312 32.8818 34.0448 34.4688 32.6354 36.0328L32 35.5498Z" fill="#1AB060"/>
<path d="M51 35.2942C51.1386 32.9827 50.896 30.5678 51.4968 28.3828C52.3748 25.2318 52.421 22.1614 52.0282 18.9874C51.9473 18.3664 52.1437 17.2854 52.5134 17.1244C53.1026 16.8714 54.0499 17.0324 54.6738 17.3544C57.0883 18.6194 58.0125 21.0689 56.9496 23.5988C55.9214 26.0483 54.6969 28.4173 53.5531 30.8093C52.8369 32.3042 52.1206 33.7992 51.4043 35.2942C51.2773 35.3057 51.1386 35.3057 51 35.2942Z" fill="#1AB060"/>
<path d="M101.5 101.5C101.5 104.814 100.866 106 97 106C93.134 106 90 103.314 90 100C90 96.6863 91.634 98.5 95.5 98.5C99.366 98.5 101.5 98.1863 101.5 101.5Z" fill="#1AB060"/>
<path d="M67.4084 73.7329C65.9901 76.5073 64.3834 79.213 63.2864 82.1136C62.533 84.4639 63.4637 98.2675 62.8986 100.56C62.4111 102.555 62.0565 104.619 62.0011 106.671C61.9457 108.517 64.012 106.671 64.605 105.41C64.5164 104.837 64.2061 104.115 64.328 103.472C64.5718 102.143 64.9153 100.79 65.4472 99.5515C67.2644 95.2752 67.8849 91.0447 65.9901 86.5505C65.5691 85.5645 65.8017 83.9594 66.3115 82.9391C67.2201 81.1276 68.4833 79.4882 69.7464 77.906C72.4834 74.4895 75.8297 71.589 77.9461 67.6336C78.9655 65.7305 80.4836 64.7216 82.6554 64.584C83.564 64.5267 84.1069 64.6986 84.3174 65.5241C85.0377 68.3215 84.8936 71.0501 83.298 73.5265C81.5362 76.2551 79.586 78.8461 77.9683 81.655C76.5499 84.1199 75.6192 86.8256 76.284 89.8179C76.7383 91.8587 81.2969 102.368 82.7152 100.889C85.3467 102.364 82.5681 91.0235 81.5473 88.339C82.6221 86.4129 83.431 84.3034 84.6831 82.5149C86.2233 80.3136 88.2178 78.4563 89.8023 76.2895C91.5088 73.9622 92.5282 71.2221 92.0628 68.2986C91.6639 65.868 90.8882 63.4604 89.9353 61.1904C89.1929 59.4248 87.8189 58.0032 85.9463 57.3726C83.8631 56.6733 81.8575 57.0631 79.7855 57.6822C75.73 58.886 73.0152 61.2592 71.5637 65.5241C70.5886 68.4017 68.8046 70.9928 67.4084 73.7329Z" fill="#1AB060"/>
<path d="M98 102C98 103.105 96.8807 104 95.5 104C94.1193 104 93 103.105 93 102C93 100.895 94.1193 100 95.5 100C96.8807 100 100.5 100 98 102Z" fill="#15191C"/>
</svg>
