<svg width="1920" height="70" viewBox="0 0 1920 70" fill="none" xmlns="http://www.w3.org/2000/svg">
<g clip-path="url(#clip0_642_5007)">
<path d="M1918 68L2 68V14H2.00562H2.05737H2.10974H2.16272H2.21631H2.27051H2.32532H2.38062H2.43665H2.49316H2.55029H2.60803H2.66626H2.7251H2.78467H2.8446H2.90527H2.96643H3.0282H3.09045H3.15332H3.2168H3.28076H3.34534H3.41052H3.4762H3.54236H3.60913H3.67651H3.74438H3.81274H3.88171H3.95117H4.02124H4.0918H4.16284H4.2345H4.30664H4.37927H4.45251H4.52625H4.60046H4.67529H4.75049H4.82629H4.90259H4.97949H5.05676H5.13464H5.21289H5.29175H5.37109H5.45093H5.53125H5.61206H5.69336H5.77515H5.85742H5.94019H6.02344H6.10718H6.19141H6.276H6.36121H6.44678H6.53284H6.61938H6.70642H6.79395H6.88184H6.97021H7.05908H7.14844H7.23816H7.32837H7.41895H7.51013H7.60156H7.6936H7.78601H7.87891H7.97217H8.06592H8.16003H8.25464H8.34961H8.44507H8.54089H8.63721H8.73389H8.83093H8.92847H9.02637H9.12476H9.22339H9.32263H9.42212H9.52209H9.62244H9.72314H9.82422H9.92578H10.0277H10.13H10.2327H10.3357H10.4392H10.543H10.6472H10.7517H10.8567H10.962H11.0677H11.1737H11.2802H11.387H11.494H11.6016H11.7094H11.8176H11.9261H12.035H12.1443H12.2539H12.3638H12.4741H12.5847H12.6956H12.8069H12.9185H13.0304H13.1427H13.2552H13.3682H13.4814H13.595H13.7087H13.823H13.9375H14.0522H14.1674H14.2827H14.3984H14.5145H14.6309H14.7474H14.8644H14.9816H15.099H15.2168H15.3348H15.4532H15.5718H15.6908H15.8099H15.9294H16.0491H16.1692H16.2894H16.4099H16.5308H16.6519H16.7732H16.8948H17.0166H17.1387H17.261H17.3837H17.5065H17.6295H17.7529H17.8765H18.0002H18.1243H18.2487H18.3732H18.4979H18.6228H18.748H18.8735H18.9991H19.125H19.2511H19.3774H19.5039H19.6306H19.7576H19.8846H20.0121H20.1396H20.2673H20.3953H20.5234H20.6517H20.7803H20.9091H21.038H21.167H21.2963H21.4257H21.5553H21.6852H21.8152H21.9453H22.0756H22.2061H22.3368H22.4677H22.5986H22.7297H22.8611H22.9924H23.1241H23.2559H23.3878H23.5198H23.652H23.7844H23.9169H24.0494H24.1823H24.3152H24.4481H24.5813H24.7146H24.848H24.9816H25.1151H25.2489H25.3828H25.5168H25.6509H25.7852H25.9194H26.054H26.1885H26.3231H26.4578H26.5927H26.7275H26.8627H26.9977H27.1329H27.2682H27.4036H27.5391H27.6746H27.8102H27.9459H28.0817H28.2175H28.3534H28.4894H28.6255H28.7615H28.8977H29.0339H29.1702H29.3065H29.4429H29.5793H29.7158H29.8523H29.9889H30.1255H30.2622H30.3989H30.5356H30.6724H30.8091H30.9459H31.0828H31.2197H31.3566H31.4935H31.6304H31.7673H31.9043H32.0413H32.1782H32.3152H32.4523H32.5892H32.7262H32.8632H33.0002H33.1372H33.2742H33.4111H33.5481H33.6849H33.8219H33.9589H34.0957H34.2325L34.3694 14H34.5062H34.6429H34.7798H34.9164H35.0531H35.1897H35.3264H35.4629H35.5995H35.7358H35.8723H36.0087H36.145H36.2812H36.4175H36.5536H36.6897H36.8257H36.9617H37.0975H37.2334H37.3691H37.5048H37.6404H37.7759H37.9113H38.0466H38.1819H38.317H38.4521H38.5872H38.722H38.8568H38.9916H39.1262H39.2606H39.395H39.5293H39.6636H39.7976H39.9315H40.0654H40.1991H40.3328H40.4662H40.5996H40.7328H40.866H40.9989H41.1318H41.2645H41.3971H41.5295H41.6619H41.7939H41.926H42.0579H42.1896H42.321H42.4525H42.5837H42.7148H42.8458H42.9766H43.1072H43.2375H43.3678H43.4979H43.6279H43.7576H43.8872H44.0166H44.1458H44.2748H44.4037H44.5323H44.6608H44.7891H44.9171H45.045H45.1727H45.3002H45.4275H45.5546H45.6814H45.8081H45.9344H46.0607H46.1868H46.3125H46.4381H46.5635H46.6886H46.8135H46.9381H47.0626H47.1868H47.3108H47.4344H47.558H47.6813H47.8042H47.927H48.0496H48.1718H48.2938H48.4155H48.5371H48.6583H48.7793H48.9H49.0205H49.1406H49.2606H49.3802H49.4996H49.6187H49.7375H49.8561H49.9742H50.0923H50.21H50.3273H50.4445H50.5613H50.6777H50.7939H50.9099H51.0255H51.1407H51.2557H51.3705H51.4849H51.5989H51.7126H51.8262H51.9392H52.052H52.1646H52.2767H52.3885H52.5C107.18 14 144.133 18.8902 182.427 23.9577L186.397 24.4828C226.17 29.7371 268.04 35 333 35C412.367 35 464.257 28.142 520.661 20.6873C526.192 19.9563 531.765 19.2197 537.413 18.4832C600.613 10.2409 673.148 2 797.5 2C939.703 2 993.978 9.8025 1049.71 17.8148C1051.25 18.0364 1052.8 18.258 1054.34 18.4797C1111.93 26.743 1173.65 35 1336.5 35C1528.01 35 1626.2 32.0667 1807.2 13.9901C1829.54 11.7592 1857.68 11.7561 1880.3 12.3166C1891.6 12.5966 1901.49 13.0166 1908.56 13.3665C1912.1 13.5415 1914.93 13.6989 1916.87 13.8125C1917.29 13.837 1917.67 13.8594 1918 13.8795V68Z" fill="#0480DC" stroke="#0480DC" stroke-width="4"/>
</g>
<defs>
<clipPath id="clip0_642_5007">
<rect width="1920" height="70" fill="white"/>
</clipPath>
</defs>
</svg>
