<svg width="1920" height="68" viewBox="0 0 1920 68" fill="none" xmlns="http://www.w3.org/2000/svg">
<path d="M1918 66L2 66V12H2.04089H2.09021H2.14001H2.19043H2.24146H2.29297H2.34497H2.39746H2.45056H2.50415H2.55823H2.61292H2.66797H2.72363H2.77991H2.83655H2.8938H2.95154H3.00977H3.06848H3.12781H3.1875H3.2478H3.30847H3.36975H3.43152H3.49377H3.55652H3.61975H3.68347H3.74768H3.81226H3.87744H3.94312H4.00928H4.07581H4.14294H4.21045H4.27856H4.34705H4.41602H4.48547H4.5553H4.62573H4.69653H4.76782H4.83948H4.91174H4.98438H5.0575H5.13098H5.20508H5.27942H5.35437H5.42969H5.50549H5.58167H5.65833H5.73547H5.81299H5.89087H5.96924H6.0481H6.12732H6.20703H6.28711H6.36755H6.44849H6.52991H6.61157H6.69385H6.77637H6.85938H6.94275H7.02661H7.11084H7.19543H7.2804H7.36584H7.45166H7.53784H7.62439H7.71143H7.79883H7.8866H7.97473H8.06323H8.15222H8.24146H8.33118H8.42126H8.51172H8.60242H8.6936H8.78516H8.87708H8.96936H9.06201H9.15503H9.24841H9.34216H9.43616H9.53064H9.62549H9.72058H9.81604H9.91187H10.0081H10.1046H10.2015H10.2987H10.3962H10.4941H10.5924H10.6909H10.7898H10.889H10.9885H11.0884H11.1886H11.2891H11.3899H11.4911H11.5925H11.6943H11.7964H11.8988H12.0016H12.1046H12.2079H12.3115H12.4155H12.5197H12.6243H12.729H12.8342H12.9396H13.0453H13.1512H13.2576H13.3641H13.4709H13.5781H13.6855H13.7932H13.9011H14.0094H14.1179H14.2267H14.3358H14.4451H14.5547H14.6646H14.7747H14.885H14.9956H15.1064H15.2177H15.329H15.4407H15.5525H15.6647H15.777H15.8896H16.0026H16.1156H16.229H16.3425H16.4563H16.5703H16.6847H16.7992H16.9138H17.0288H17.144H17.2594H17.375H17.4908H17.6069H17.7231H17.8396H17.9563H18.0732H18.1903H18.3076H18.425H18.5428H18.6606H18.7788H18.8971H19.0156H19.1343H19.2532H19.3722H19.4915H19.6108H19.7305H19.8503H19.9702H20.0905H20.2107H20.3313H20.4519H20.5728H20.6937H20.8149H20.9363H21.0577H21.1794H21.3013H21.4232H21.5454H21.6676H21.7902H21.9127H22.0354H22.1583H22.2814H22.4045H22.5278H22.6512H22.7748H22.8986H23.0225H23.1464H23.2705H23.3948H23.5192H23.6436H23.7682H23.8929H24.0178H24.1428H24.2678H24.3931H24.5183H24.6438H24.7693H24.8949H25.0206H25.1465H25.2725H25.3984H25.5245H25.6508H25.7771H25.9036H26.03H26.1566H26.2833H26.41H26.5369H26.6638H26.7908H26.9178H27.045H27.1722H27.2994H27.4269H27.5543H27.6818H27.8093H27.9369H28.0646H28.1924H28.3201H28.448H28.5758H28.7039H28.8318H28.9598H29.0879H29.2161H29.3442H29.4724H29.6007H29.729H29.8573H29.9856H30.114H30.2424H30.3708H30.4994H30.6278H30.7563H30.8849H31.0134H31.142H31.2705H31.3992H31.5277H31.6564H31.7849H31.9136H32.0421H32.1708H32.2994H32.428H32.5566H32.6853H32.8138H32.9424H33.071H33.1996H33.3281H33.4567H33.5852H33.7136H33.8422H33.9706H34.099H34.2274L34.3557 12H34.484H34.6123H34.7406H34.8689H34.9971H35.1251H35.2533H35.3813H35.5093H35.6373H35.7651H35.8931H36.0209H36.1486H36.2762H36.4039H36.5315H36.6589H36.7864H36.9138H37.0411H37.1683H37.2955H37.4226H37.5496H37.6765H37.8035H37.9302H38.0569H38.1835H38.3101H38.4364H38.5627H38.6891H38.8152H38.9413H39.0673H39.1931H39.3188H39.4445H39.5701H39.6954H39.8208H39.946H40.0712H40.1962H40.321H40.4458H40.5704H40.6949H40.8193H40.9436H41.0677H41.1918H41.3157H41.4395H41.5631H41.6865H41.8099H41.9331H42.0562H42.1791H42.3019H42.4244H42.547H42.6693H42.7915H42.9135H43.0354H43.1571H43.2786H43.4H43.5212H43.6422H43.7632H43.8839H44.0044H44.1248H44.245H44.365H44.4849H44.6045H44.724H44.8433H44.9624H45.0813H45.2001H45.3186H45.437H45.5551H45.6731H45.7908H45.9083H46.0258H46.1429H46.2599H46.3766H46.4932H46.6094H46.7256H46.8414H46.957H47.0725H47.1877H47.3027H47.4176H47.5321H47.6465H47.7606H47.8744H47.988H48.1014H48.2146H48.3275H48.4403H48.5527H48.6649H48.7769H48.8885H49C85.1312 12 123.165 13.7482 162.896 15.5745C185.488 16.6129 208.628 17.6766 232.279 18.4584C297.455 20.6129 366.342 20.6161 437.74 11.9856C508.77 3.39951 614.212 8.62992 733.217 16.0367C748.206 16.9695 763.407 17.9367 778.779 18.9148C885.366 25.6964 1000.16 33 1109 33C1244.3 33 1322.94 22.1455 1386.17 13.4172C1391.36 12.7016 1396.44 12.0002 1401.44 11.3203C1467.31 2.36394 1519.09 -2.86375 1609.17 11.9734C1711.36 28.8039 1803.98 18.7084 1847.1 14.0084C1857.85 12.8365 1865.52 12 1869.5 12H1869.62H1869.74H1869.86H1869.98H1870.1H1870.22H1870.35H1870.47H1870.59H1870.71H1870.83H1870.96H1871.08H1871.2H1871.33H1871.45H1871.57H1871.7H1871.82H1871.94H1872.07H1872.19H1872.32H1872.44H1872.57H1872.69H1872.82H1872.94H1873.07H1873.19H1873.32H1873.45H1873.57H1873.7H1873.82H1873.95H1874.08H1874.21H1874.33H1874.46H1874.59H1874.71H1874.97H1875.1H1875.23H1875.36H1875.48H1875.61H1875.74H1875.87H1876H1876.13H1876.26H1876.39H1876.52H1876.65H1876.78H1876.9H1877.03H1877.16H1877.3H1877.43H1877.56H1877.69H1877.82H1877.95H1878.08H1878.21H1878.34H1878.47H1878.6H1878.73H1878.86H1879H1879.13H1879.26H1879.39H1879.52H1879.65H1879.79H1879.92H1880.05H1880.18H1880.31H1880.45H1880.58H1880.71H1880.84H1880.98H1881.11H1881.24H1881.37H1881.51H1881.64H1881.77H1881.91H1882.04H1882.17H1882.3H1882.44H1882.57H1882.7H1882.84H1882.97H1883.1H1883.24H1883.37H1883.5H1883.64H1883.77H1883.9H1884.04H1884.17H1884.3H1884.44H1884.57H1884.7H1884.84H1884.97H1885.1H1885.24H1885.37H1885.51H1885.64H1885.77H1885.91H1886.04H1886.17H1886.31H1886.44H1886.57H1886.71H1886.84H1886.97H1887.11H1887.24H1887.37H1887.51H1887.64H1887.77H1887.91H1888.04H1888.17H1888.31H1888.44H1888.57H1888.7H1888.84H1888.97H1889.1H1889.24H1889.37H1889.5H1889.63H1889.77H1889.9H1890.03H1890.16H1890.3H1890.43H1890.56H1890.69H1890.83H1890.96L1891.09 12H1891.22H1891.35H1891.48H1891.62H1891.75H1891.88H1892.01H1892.14H1892.27H1892.4H1892.53H1892.67H1892.8H1892.93H1893.06H1893.19H1893.32H1893.45H1893.58H1893.71H1893.84H1893.97H1894.1H1894.23H1894.36H1894.49H1894.62H1894.75H1894.87H1895H1895.13H1895.26H1895.39H1895.52H1895.65H1895.77H1895.9H1896.03H1896.16H1896.29H1896.41H1896.54H1896.67H1896.79H1896.92H1897.05H1897.17H1897.3H1897.43H1897.55H1897.68H1897.8H1897.93H1898.05H1898.18H1898.3H1898.43H1898.55H1898.68H1898.8H1898.93H1899.05H1899.17H1899.3H1899.42H1899.54H1899.67H1899.79H1899.91H1900.03H1900.16H1900.28H1900.4H1900.52H1900.64H1900.76H1900.89H1901.01H1901.13H1901.25H1901.37H1901.49H1901.61H1901.73H1901.85H1901.96H1902.08H1902.2H1902.32H1902.44H1902.56H1902.67H1902.79H1902.91H1903.02H1903.14H1903.26H1903.37H1903.49H1903.6H1903.72H1903.84H1903.95H1904.06H1904.18H1904.29H1904.41H1904.52H1904.63H1904.75H1904.86H1904.97H1905.08H1905.2H1905.31H1905.42H1905.53H1905.64H1905.75H1905.86H1905.97H1906.08H1906.19H1906.3H1906.41H1906.52H1906.63H1906.73H1906.84H1906.95H1907.05H1907.16H1907.27H1907.37H1907.48H1907.58H1907.69H1907.79H1907.9H1908H1908.11H1908.21H1908.31H1908.42H1908.52H1908.62H1908.72H1908.82H1908.93H1909.03H1909.13H1909.23H1909.33H1909.43H1909.53H1909.62H1909.72H1909.82H1909.92H1910.02H1910.11H1910.21H1910.31H1910.4H1910.5H1910.59H1910.69H1910.78H1910.88H1910.97H1911.06H1911.16H1911.25H1911.34H1911.52H1911.61H1911.71H1911.8H1911.89H1911.98H1912.06H1912.15H1912.24H1912.33H1912.42H1912.5H1912.59H1912.68H1912.76H1912.85H1912.93H1913.02H1913.1H1913.19H1913.27H1913.35H1913.43H1913.52H1913.6H1913.68H1913.76H1913.84H1913.92H1914H1914.08H1914.16H1914.24H1914.31H1914.39H1914.47H1914.54H1914.62H1914.69H1914.77H1914.84H1914.92H1914.99H1915.07H1915.14H1915.21H1915.28H1915.35H1915.42H1915.49H1915.56H1915.63H1915.7H1915.77H1915.84H1915.91H1915.97H1916.04H1916.11H1916.17H1916.24H1916.3H1916.37H1916.43H1916.49H1916.56H1916.62H1916.68H1916.74H1916.8H1916.86H1916.92H1916.98H1917.04H1917.1H1917.15H1917.21H1917.27H1917.32H1917.38H1917.43H1917.49H1917.54H1917.6H1917.65H1917.7H1917.75H1917.8H1917.85H1917.9H1917.95H1918V66Z" fill="#004B83" stroke="#004B83" stroke-width="4"/>
</svg>
