<svg width="1920" height="60" viewBox="0 0 1920 60" fill="none" xmlns="http://www.w3.org/2000/svg">
<path d="M1918 58L2 58V3.76002C2.88062 3.65273 4.07373 3.51414 5.52173 3.36204C8.81189 3.01643 13.4122 2.60162 18.6479 2.32517C29.1672 1.76976 42.0715 1.78418 52.0759 3.95454C107.651 16.011 145.598 18.6505 185.804 19.5871C195.149 19.8047 204.608 19.9305 214.435 20.0612C246.867 20.4926 283.304 20.9771 332.838 24.9935C443.99 34.0058 585.763 28.7466 730.757 21.2473C759.278 19.7722 787.924 18.2104 816.489 16.653C933.205 10.2896 1048.56 4 1148.5 4C1294.66 4 1365.97 11.1366 1423.6 17.3267C1425.68 17.5496 1427.74 17.7713 1429.78 17.9915C1484.56 23.893 1528.74 28.6523 1617.08 24.9983C1640.68 24.0223 1669.82 20.7169 1702.49 17.0108C1710.96 16.0497 1719.67 15.0616 1728.59 14.0803C1771.92 9.30866 1820.16 4.68023 1869.53 3.99981C1879.37 3.86417 1891.98 3.86411 1902.14 3.89808C1907.22 3.91505 1911.68 3.94052 1914.87 3.96174C1916.12 3.97006 1917.18 3.97773 1918 3.98398V58Z" fill="#0063AC" stroke="#0063AC" stroke-width="4"/>
</svg>
